<?xml version="1.0" standalone="no"?>
<!DOCTYPE svg PUBLIC "-//W3C//DTD SVG 20010904//EN"
 "http://www.w3.org/TR/2001/REC-SVG-20010904/DTD/svg10.dtd">
<svg version="1.0" xmlns="http://www.w3.org/2000/svg"
 width="512.000000pt" height="512.000000pt" viewBox="0 0 512.000000 512.000000"
 preserveAspectRatio="xMidYMid meet">

<g transform="translate(0.000000,512.000000) scale(0.100000,-0.100000)"
fill="#000000" stroke="none">
<path d="M2300 4680 c-270 -38 -554 -131 -769 -254 l-94 -54 -49 35 c-175 126
-431 112 -597 -33 -177 -154 -213 -434 -81 -632 l41 -61 -31 -49 c-117 -191
-219 -477 -267 -747 -24 -140 -24 -508 0 -650 47 -268 150 -556 267 -747 l31
-49 -41 -61 c-107 -160 -107 -371 -2 -534 146 -226 464 -287 681 -131 l48 35
69 -40 c219 -129 504 -226 771 -264 138 -19 405 -22 538 -5 291 38 606 146
830 285 l40 25 33 -25 c156 -120 388 -130 553 -23 58 37 127 109 161 169 91
159 82 365 -21 512 l-38 55 35 59 c134 225 237 533 272 814 13 109 13 391 -1
500 -34 277 -133 576 -266 804 l-41 68 39 56 c108 153 109 375 5 536 -148 227
-454 288 -677 136 l-55 -38 -40 25 c-126 78 -339 170 -508 218 -187 53 -294
67 -541 71 -126 1 -259 -1 -295 -6z m507 -175 c229 -30 401 -83 621 -191 125
-62 152 -79 146 -92 -33 -80 -46 -124 -51 -178 -21 -227 138 -450 362 -509 90
-23 183 -19 273 11 90 30 79 39 154 -111 100 -198 162 -397 194 -621 24 -174
15 -464 -20 -631 -44 -206 -113 -397 -203 -560 l-46 -81 -41 18 c-257 110
-543 -17 -646 -285 -34 -89 -34 -235 1 -326 l26 -67 -71 -40 c-162 -92 -356
-163 -573 -209 -119 -25 -146 -27 -368 -28 -211 0 -253 3 -352 23 -219 44
-423 117 -589 209 l-82 46 18 41 c110 257 -17 543 -285 646 -89 34 -224 34
-321 -1 l-71 -26 -13 21 c-73 117 -168 347 -210 511 -120 465 -63 952 161
1386 l60 116 61 -24 c82 -34 184 -40 280 -19 294 65 456 385 337 663 l-18 42
140 70 c142 71 327 138 461 167 209 45 459 55 665 29z m-1584 -202 c64 -20
148 -97 178 -165 35 -78 33 -193 -3 -264 -38 -72 -69 -106 -126 -137 -139 -75
-298 -48 -400 69 -129 146 -85 384 88 478 83 45 162 51 263 19z m2924 -14
c144 -69 210 -232 158 -390 -25 -75 -110 -159 -185 -184 -164 -55 -328 12
-402 165 -32 65 -31 186 1 257 26 60 103 136 159 160 91 38 178 35 269 -8z
m-2906 -2888 c69 -33 112 -74 149 -143 31 -56 34 -71 35 -143 0 -63 -5 -91
-23 -130 -50 -110 -148 -175 -272 -183 -136 -7 -242 53 -300 172 -57 116 -39
251 47 346 47 53 80 74 148 97 54 18 161 10 216 -16z m2884 2 c70 -23 155
-109 180 -182 69 -209 -75 -421 -289 -422 -91 -1 -156 23 -220 82 -74 68 -101
130 -100 234 0 61 5 91 22 125 33 68 74 112 131 144 87 47 169 53 276 19z"/>
<path d="M1960 3566 c-337 -125 -584 -222 -597 -234 l-23 -21 0 -734 0 -734
23 -20 c27 -26 1167 -483 1203 -483 34 0 1173 458 1199 482 20 18 20 33 23
726 2 490 0 719 -8 745 -6 20 -21 43 -33 51 -38 24 -1161 436 -1187 435 -14 0
-284 -96 -600 -213z m1053 -128 c240 -89 437 -164 437 -167 0 -4 -200 -86
-444 -183 l-444 -177 -438 175 c-242 97 -442 179 -446 183 -8 7 844 329 877
330 11 1 217 -72 458 -161z m-543 -1280 c0 -576 -1 -607 -18 -600 -9 4 -225
90 -480 192 l-462 185 0 606 0 607 480 -191 480 -192 0 -607z m1140 384 l0
-608 -447 -179 c-247 -98 -463 -185 -480 -192 l-33 -13 0 607 1 608 477 192
c262 105 478 192 480 192 1 1 2 -273 2 -607z"/>
</g>
</svg>
